<svg xmlns="http://www.w3.org/2000/svg" width="352.5" height="246.746" viewBox="0 0 352.5 246.746">
  <path id="BankNote" fill="#75f798" data-name="Icon awesome-money-bill-wave" d="M342.118,14.62C320.753,5.659,299.372,2.25,278,2.25c-67.839-.006-135.672,34.335-203.51,34.335a167.109,167.109,0,0,1-51.029-7.557,18.832,18.832,0,0,0-5.7-.892A17.526,17.526,0,0,0,0,45.656V220.395A17.515,17.515,0,0,0,10.377,236.62C31.741,245.587,53.122,249,74.492,249c67.839,0,135.677-34.341,203.516-34.341a167.11,167.11,0,0,1,51.029,7.557,18.832,18.832,0,0,0,5.7.892,17.526,17.526,0,0,0,17.762-17.52V30.852A17.537,17.537,0,0,0,342.118,14.62ZM26.437,57.448a191.671,191.671,0,0,0,34.544,4.918A35.29,35.29,0,0,1,26.437,90.754Zm0,156.97V188.1a35.238,35.238,0,0,1,35.09,33.817A133.056,133.056,0,0,1,26.437,214.419ZM176.247,178.5c-24.339,0-44.062-23.678-44.062-52.874s19.729-52.874,44.062-52.874,44.062,23.672,44.062,52.874S200.575,178.5,176.247,178.5Zm149.81,15.3a189.371,189.371,0,0,0-29.918-4.649,35.175,35.175,0,0,1,29.918-27.142Zm0-130.043a35.179,35.179,0,0,1-30.739-33.9,132.4,132.4,0,0,1,30.739,6.973Z" transform="translate(0 -2.25)"/>
</svg>
