<svg xmlns="http://www.w3.org/2000/svg" width="352.5" height="352.5" viewBox="0 0 352.5 352.5">
  <path id="Bank" fill="#009ed4" d="M345.354,63.416,183.988,1.4a22,22,0,0,0-15.47,0L7.146,63.416A11.016,11.016,0,0,0,0,73.729V99.141a11.013,11.013,0,0,0,11.016,11.016H341.484A11.013,11.013,0,0,0,352.5,99.141V73.729A11.016,11.016,0,0,0,345.354,63.416ZM44.063,132.188V242.344H33.047a11.013,11.013,0,0,0-11.016,11.016v33.047H330.469V253.359a11.013,11.013,0,0,0-11.016-11.016H308.438V132.188H264.375V242.344H198.281V132.188H154.219V242.344H88.125V132.188Zm297.422,176.25H11.016A11.013,11.013,0,0,0,0,319.453v22.031A11.013,11.013,0,0,0,11.016,352.5H341.484A11.013,11.013,0,0,0,352.5,341.484V319.453A11.013,11.013,0,0,0,341.484,308.438Z" transform="translate(0 0)"/>
</svg>
