<svg width="24" height="24" viewBox="0 0 24 24" fill="none" xmlns="http://www.w3.org/2000/svg">
<g id="lunch_dining_FILL1_wght400_GRAD0_opsz24">
<path id="Vector" d="M4 21C3.45 21 2.97917 20.8042 2.5875 20.4125C2.19583 20.0208 2 19.55 2 19V16H22V19C22 19.55 21.8042 20.0208 21.4125 20.4125C21.0208 20.8042 20.55 21 20 21H4ZM12 13.5C11.4 13.5 10.925 13.6667 10.575 14C10.225 14.3333 9.58333 14.5 8.65 14.5C7.71667 14.5 7.08333 14.3333 6.75 14C6.41667 13.6667 5.95 13.5 5.35 13.5C4.75 13.5 4.275 13.6667 3.925 14C3.575 14.3333 2.93333 14.5 2 14.5V12.5C2.6 12.5 3.075 12.3333 3.425 12C3.775 11.6667 4.41667 11.5 5.35 11.5C6.28333 11.5 6.91667 11.6667 7.25 12C7.58333 12.3333 8.05 12.5 8.65 12.5C9.25 12.5 9.725 12.3333 10.075 12C10.425 11.6667 11.0667 11.5 12 11.5C12.9333 11.5 13.575 11.6667 13.925 12C14.275 12.3333 14.75 12.5 15.35 12.5C15.95 12.5 16.4167 12.3333 16.75 12C17.0833 11.6667 17.7167 11.5 18.65 11.5C19.5833 11.5 20.2417 11.6667 20.625 12C21.0083 12.3333 21.4667 12.5 22 12.5V14.5C21.0667 14.5 20.4417 14.3333 20.125 14C19.8083 13.6667 19.35 13.5 18.75 13.5C18.15 13.5 17.6667 13.6667 17.3 14C16.9333 14.3333 16.2833 14.5 15.35 14.5C14.4167 14.5 13.775 14.3333 13.425 14C13.075 13.6667 12.6 13.5 12 13.5ZM2 10V9C2 7.08333 2.90417 5.60417 4.7125 4.5625C6.52083 3.52083 8.95 3 12 3C15.05 3 17.4792 3.52083 19.2875 4.5625C21.0958 5.60417 22 7.08333 22 9V10H2Z" fill="#F9C86D"/>
</g>
</svg>
