<svg width="9" height="11" viewBox="0 0 9 11" fill="none" xmlns="http://www.w3.org/2000/svg">
<path id="DateIcon" d="M4.5 6.72837C4.37036 6.72837 4.2599 6.67876 4.16861 6.57953C4.07732 6.4803 4.03168 6.36023 4.03168 6.21933C4.03168 6.07842 4.07732 5.95835 4.16861 5.85912C4.2599 5.75989 4.37036 5.71028 4.5 5.71028C4.62964 5.71028 4.7401 5.75989 4.83139 5.85912C4.92267 5.95835 4.96832 6.07842 4.96832 6.21933C4.96832 6.36023 4.92267 6.4803 4.83139 6.57953C4.7401 6.67876 4.62964 6.72837 4.5 6.72837ZM2.38235 6.72837C2.25271 6.72837 2.14225 6.67876 2.05096 6.57953C1.95967 6.4803 1.91403 6.36023 1.91403 6.21933C1.91403 6.07842 1.95967 5.95835 2.05096 5.85912C2.14225 5.75989 2.25271 5.71028 2.38235 5.71028C2.51198 5.71028 2.62244 5.75989 2.71373 5.85912C2.80502 5.95835 2.85067 6.07842 2.85067 6.21933C2.85067 6.36023 2.80502 6.4803 2.71373 6.57953C2.62244 6.67876 2.51198 6.72837 2.38235 6.72837ZM6.61765 6.72837C6.48802 6.72837 6.37755 6.67876 6.28627 6.57953C6.19498 6.4803 6.14933 6.36023 6.14933 6.21933C6.14933 6.07842 6.19498 5.95835 6.28627 5.85912C6.37755 5.75989 6.48802 5.71028 6.61765 5.71028C6.74729 5.71028 6.85775 5.75989 6.94904 5.85912C7.04033 5.95835 7.08597 6.07842 7.08597 6.21933C7.08597 6.36023 7.04033 6.4803 6.94904 6.57953C6.85775 6.67876 6.74729 6.72837 6.61765 6.72837ZM4.5 8.98592C4.37036 8.98592 4.2599 8.93631 4.16861 8.83708C4.07732 8.73785 4.03168 8.61779 4.03168 8.47688C4.03168 8.33597 4.07732 8.2159 4.16861 8.11667C4.2599 8.01743 4.37036 7.96781 4.5 7.96781C4.62964 7.96781 4.7401 8.01743 4.83139 8.11667C4.92267 8.2159 4.96832 8.33597 4.96832 8.47688C4.96832 8.61779 4.92267 8.73785 4.83139 8.83708C4.7401 8.93631 4.62964 8.98592 4.5 8.98592ZM2.38235 8.98592C2.25271 8.98592 2.14225 8.93631 2.05096 8.83708C1.95967 8.73785 1.91403 8.61779 1.91403 8.47688C1.91403 8.33597 1.95967 8.2159 2.05096 8.11667C2.14225 8.01743 2.25271 7.96781 2.38235 7.96781C2.51198 7.96781 2.62244 8.01743 2.71373 8.11667C2.80502 8.2159 2.85067 8.33597 2.85067 8.47688C2.85067 8.61779 2.80502 8.73785 2.71373 8.83708C2.62244 8.93631 2.51198 8.98592 2.38235 8.98592ZM6.61765 8.98592C6.48802 8.98592 6.37755 8.93631 6.28627 8.83708C6.19498 8.73785 6.14933 8.61779 6.14933 8.47688C6.14933 8.33597 6.19498 8.2159 6.28627 8.11667C6.37755 8.01743 6.48802 7.96781 6.61765 7.96781C6.74729 7.96781 6.85775 8.01743 6.94904 8.11667C7.04033 8.2159 7.08597 8.33597 7.08597 8.47688C7.08597 8.61779 7.04033 8.73785 6.94904 8.83708C6.85775 8.93631 6.74729 8.98592 6.61765 8.98592ZM0.95702 11C0.689596 11 0.463237 10.8993 0.277942 10.6979C0.0926473 10.4965 0 10.2504 0 9.95975V2.25755C0 1.96687 0.0926473 1.72082 0.277942 1.51942C0.463237 1.31801 0.689596 1.2173 0.95702 1.2173H1.69006V0H2.50452V1.2173H6.51583V0H7.30994V1.2173H8.04298C8.3104 1.2173 8.53676 1.31801 8.72206 1.51942C8.90735 1.72082 9 1.96687 9 2.25755V9.95975C9 10.2504 8.90735 10.4965 8.72206 10.6979C8.53676 10.8993 8.3104 11 8.04298 11H0.95702ZM0.95702 10.1368H8.04298C8.08371 10.1368 8.12105 10.1184 8.15499 10.0815C8.18892 10.0446 8.20589 10.004 8.20589 9.95975V4.55937H0.794107V9.95975C0.794107 10.004 0.811074 10.0446 0.84501 10.0815C0.878954 10.1184 0.916291 10.1368 0.95702 10.1368Z" fill="white"/>
</svg>
