<svg width="23" height="25" viewBox="0 0 23 25" fill="none" xmlns="http://www.w3.org/2000/svg">
<path id="Vector" d="M0 25V2.77778C0 2.01389 0.27298 1.35995 0.818939 0.815972C1.3649 0.271991 2.02121 0 2.78788 0H11.1515C11.9182 0 12.5745 0.271991 13.1205 0.815972C13.6664 1.35995 13.9394 2.01389 13.9394 2.77778V12.5H15.3333C16.1 12.5 16.7563 12.772 17.3023 13.316C17.8482 13.86 18.1212 14.5139 18.1212 15.2778V21.5278C18.1212 21.9213 18.2548 22.2512 18.522 22.5174C18.7891 22.7836 19.1202 22.9167 19.5152 22.9167C19.9101 22.9167 20.2412 22.7836 20.5083 22.5174C20.7755 22.2512 20.9091 21.9213 20.9091 21.5278V11.5278C20.7 11.6435 20.4793 11.7188 20.247 11.7535C20.0146 11.7882 19.7707 11.8056 19.5152 11.8056C18.5394 11.8056 17.7146 11.4699 17.0409 10.7986C16.3672 10.1273 16.0303 9.30556 16.0303 8.33333C16.0303 7.59259 16.2336 6.92708 16.6402 6.33681C17.0467 5.74653 17.5869 5.32407 18.2606 5.06944L15.3333 2.15278L16.797 0.694444L21.9545 5.69444C22.303 6.04167 22.5644 6.44676 22.7386 6.90972C22.9129 7.37269 23 7.84722 23 8.33333V21.5278C23 22.5 22.6631 23.3218 21.9894 23.9931C21.3157 24.6644 20.4909 25 19.5152 25C18.5394 25 17.7146 24.6644 17.0409 23.9931C16.3672 23.3218 16.0303 22.5 16.0303 21.5278V14.5833H13.9394V25H0ZM2.78788 9.72222H11.1515V2.77778H2.78788V9.72222ZM19.5152 9.72222C19.9101 9.72222 20.2412 9.58912 20.5083 9.32292C20.7755 9.05671 20.9091 8.72685 20.9091 8.33333C20.9091 7.93982 20.7755 7.60995 20.5083 7.34375C20.2412 7.07755 19.9101 6.94444 19.5152 6.94444C19.1202 6.94444 18.7891 7.07755 18.522 7.34375C18.2548 7.60995 18.1212 7.93982 18.1212 8.33333C18.1212 8.72685 18.2548 9.05671 18.522 9.32292C18.7891 9.58912 19.1202 9.72222 19.5152 9.72222Z" fill="#FB6062"/>
</svg>
