<svg width="11" height="8" viewBox="0 0 11 8" fill="none" xmlns="http://www.w3.org/2000/svg">
<path id="PingIcon" d="M5.5 8C5.2287 8 4.99938 7.90205 4.81205 7.70615C4.62472 7.51025 4.53105 7.27045 4.53105 6.98674C4.53105 6.70303 4.62472 6.46322 4.81205 6.26733C4.99938 6.07143 5.2287 5.97348 5.5 5.97348C5.7713 5.97348 6.00062 6.07143 6.18795 6.26733C6.37528 6.46322 6.46895 6.70303 6.46895 6.98674C6.46895 7.27045 6.37528 7.51025 6.18795 7.70615C6.00062 7.90205 5.7713 8 5.5 8ZM2.78875 5.30953L2.03944 4.5105C2.48362 4.04601 3.0008 3.67995 3.59099 3.41232C4.18119 3.14468 4.81778 3.01087 5.50077 3.01087C6.18375 3.01087 6.82009 3.14597 7.40976 3.41618C7.99945 3.68638 8.51638 4.0563 8.96056 4.52595L8.21125 5.30953C7.85935 4.94153 7.45146 4.65299 6.98759 4.4439C6.52372 4.23481 6.02785 4.13027 5.5 4.13027C4.97215 4.13027 4.47628 4.23481 4.01241 4.4439C3.54854 4.65299 3.14065 4.94153 2.78875 5.30953ZM0.749313 3.17683L0 2.39325C0.701958 1.6489 1.52173 1.06394 2.45931 0.638367C3.3969 0.212789 4.41046 0 5.5 0C6.58954 0 7.6031 0.212789 8.54069 0.638367C9.47827 1.06394 10.298 1.6489 11 2.39325L10.2507 3.17683C9.63486 2.53284 8.92105 2.02894 8.10928 1.66512C7.2975 1.30131 6.42774 1.1194 5.5 1.1194C4.57226 1.1194 3.7025 1.30131 2.89072 1.66512C2.07895 2.02894 1.36514 2.53284 0.749313 3.17683Z" fill="white"/>
</svg>
