<svg width="28" height="28" viewBox="0 0 28 28" fill="none" xmlns="http://www.w3.org/2000/svg">
<g id="seat_belt 1">
<g id="Group">
<g id="Group_2">
<g id="Group_3">
<path id="Vector" d="M13.65 1.12657C12.3485 1.32344 11.211 2.37344 10.8828 3.69688C10.7625 4.18907 10.8063 5.075 10.9813 5.55625C11.3313 6.5625 12.075 7.30625 13.0813 7.65625C14.6672 8.20313 16.45 7.49219 17.1828 6.00469C17.4453 5.45782 17.5438 5.04219 17.5438 4.4625C17.5438 3.89375 17.4453 3.46719 17.2047 2.975C16.7781 2.11094 15.9469 1.44375 15.05 1.21407C14.6563 1.09375 14.0328 1.06094 13.65 1.12657Z" fill="#FB6062"/>
<path id="Vector_2" d="M19.7641 7.55782C19.611 7.62344 19.2172 7.94063 17.6313 9.28594L17.1938 9.65782L16.8766 9.45001C16.1547 8.99063 14.8422 8.77188 13.475 8.89219C12.3047 9.00157 11.6266 9.25313 11.0797 9.80001C10.325 10.5547 10.0079 11.5719 9.50474 14.7656C9.38442 15.5094 9.30786 16.1547 9.30786 16.1984C9.3188 16.2422 10.7407 15.0719 13.2235 12.9828C15.3672 11.1781 17.1391 9.70157 17.161 9.70157C17.2266 9.70157 17.511 10.0188 17.686 10.3031C17.861 10.5875 18.2219 11.4406 18.2219 11.5828C18.2219 11.6266 18.2438 11.6703 18.2657 11.6922C18.2875 11.7141 18.9329 11.2 19.6985 10.5656C20.8469 9.60313 21.0985 9.36251 21.2188 9.14376C21.5251 8.57501 21.2735 7.85313 20.6719 7.57969C20.4422 7.47032 19.9938 7.45938 19.7641 7.55782Z" fill="#FB6062"/>
<path id="Vector_3" d="M14.6016 14.8641C12.5891 16.5594 10.861 18.0141 10.7625 18.1016L10.5875 18.2437L10.7625 18.2109C11.3203 18.1234 12.0313 18.0797 13.5297 18.0469C15.7063 18.0141 16.9094 18.1016 18.6813 18.4187C19.075 18.4844 19.4141 18.5391 19.425 18.5281C19.436 18.5172 19.3703 18.0359 19.2719 17.4562C19.1735 16.8766 18.9985 15.8047 18.8891 15.0609C18.6047 13.1797 18.3641 11.9109 18.2875 11.8234C18.2766 11.7906 16.6141 13.1687 14.6016 14.8641Z" fill="#FB6062"/>
<path id="Vector_4" d="M7.13127 18.1234C5.26096 19.6875 5.03127 19.8953 4.9219 20.125C4.77971 20.4422 4.76877 20.7594 4.91096 21.0656C5.0969 21.4703 5.38127 21.6781 5.81877 21.7437C6.08127 21.7875 6.20159 21.7547 7.35002 21.35C7.78752 21.1969 8.41096 21.0109 8.72815 20.9344C9.25315 20.8031 9.2969 20.7922 9.27502 20.6937C9.26409 20.6391 9.16565 20.1359 9.06721 19.5891L8.88127 18.5937L9.06721 17.5C9.16565 16.8984 9.24221 16.4062 9.23127 16.3844C9.22034 16.3734 8.27971 17.1609 7.13127 18.1234Z" fill="#FB6062"/>
<path id="Vector_5" d="M19.2828 19.6328C19.1734 20.2125 19.0859 20.7156 19.075 20.7594C19.0641 20.825 19.0969 20.8469 19.2391 20.8797C19.6 20.9453 20.6172 21.2516 21.2187 21.4813C21.5578 21.6125 21.9078 21.711 22.0062 21.711C22.6953 21.711 23.2531 21.0985 23.1766 20.4313C23.1437 20.136 22.925 19.775 22.6953 19.6219C22.3344 19.3813 20.3656 18.725 19.6766 18.6156L19.4797 18.5828L19.2828 19.6328Z" fill="#FB6062"/>
<path id="Vector_6" d="M12.786 20.3547C11.6157 20.4203 9.45003 20.6938 9.34066 20.8031C9.28597 20.8469 10.1828 25.7031 10.2922 25.9984C10.3907 26.2828 10.7297 26.6109 11.0469 26.7641C11.386 26.9281 11.911 26.9391 12.2391 26.7859C12.5563 26.6438 12.8297 26.3922 12.9719 26.0969C13.1907 25.6594 13.1797 25.4406 12.8625 23.8219C12.6985 23.0234 12.5891 22.3563 12.6 22.3344C12.6547 22.2797 15.6953 22.2906 15.7391 22.3344C15.761 22.3563 15.6516 23.0453 15.4875 23.8656C15.1703 25.4734 15.1594 25.6594 15.3563 26.0531C15.5203 26.3703 15.7391 26.6 16.0563 26.7531C16.8 27.1141 17.7078 26.7859 18.0469 26.0313C18.1563 25.7797 19.0641 20.9016 19.0094 20.8578C18.9657 20.8031 18.0141 20.6391 17.2813 20.5406C15.9032 20.3547 14.1641 20.2891 12.786 20.3547Z" fill="#FB6062"/>
</g>
</g>
</g>
</g>
</svg>
