<svg width="9" height="9" viewBox="0 0 9 9" fill="none" xmlns="http://www.w3.org/2000/svg">
<path id="TimeIcon" d="M6.14516 6.64433L6.64433 6.14516L4.85525 4.35596V2.13157H4.14475V4.64393L6.14516 6.64433ZM4.50079 9C3.8784 9 3.29338 8.88189 2.74574 8.64568C2.19809 8.40947 1.72171 8.08891 1.31661 7.68398C0.911497 7.27905 0.590784 6.80288 0.354471 6.25548C0.118157 5.70808 0 5.12318 0 4.50079C0 3.8784 0.118106 3.29338 0.354317 2.74574C0.590528 2.19809 0.911094 1.72171 1.31602 1.31661C1.72095 0.911498 2.19711 0.590785 2.74452 0.354471C3.29192 0.118157 3.87682 0 4.49921 0C5.1216 0 5.70661 0.118106 6.25426 0.354317C6.80191 0.590528 7.27829 0.911094 7.68339 1.31602C8.0885 1.72095 8.40921 2.19712 8.64553 2.74452C8.88184 3.29192 9 3.87682 9 4.49921C9 5.1216 8.88189 5.70661 8.64568 6.25426C8.40947 6.80191 8.08891 7.27829 7.68398 7.68339C7.27905 8.0885 6.80288 8.40921 6.25548 8.64553C5.70808 8.88184 5.12318 9 4.50079 9Z" fill="white"/>
</svg>
