<svg width="9" height="9" viewBox="0 0 9 9" fill="none" xmlns="http://www.w3.org/2000/svg">
<path id="UserIcon" d="M4.5 4.31051C3.92251 4.31051 3.42814 4.09947 3.01688 3.67741C2.60563 3.25533 2.40001 2.74795 2.40001 2.15526C2.40001 1.56256 2.60563 1.05518 3.01688 0.633112C3.42814 0.211037 3.92251 0 4.5 0C5.07749 0 5.57186 0.211037 5.98311 0.633112C6.39437 1.05518 6.59999 1.56256 6.59999 2.15526C6.59999 2.74795 6.39437 3.25533 5.98311 3.67741C5.57186 4.09947 5.07749 4.31051 4.5 4.31051ZM0 9V7.63106C0 7.32949 0.0798101 7.05021 0.239431 6.79324C0.399041 6.53627 0.612307 6.33871 0.879228 6.20054C1.47231 5.90212 2.07058 5.6783 2.67404 5.5291C3.27751 5.37989 3.88616 5.30529 4.5 5.30529C5.11384 5.30529 5.72249 5.37989 6.32596 5.5291C6.92942 5.6783 7.52769 5.90212 8.12077 6.20054C8.38769 6.33871 8.60096 6.53627 8.76057 6.79324C8.92019 7.05021 9 7.32949 9 7.63106V9H0Z" fill="white"/>
</svg>
